<?xml version="1.0" encoding="utf-8"?><!-- Uploaded to: SVG Repo, www.svgrepo.com, Generator: SVG Repo Mixer Tools -->
<svg fill="#fff" width="800px" height="800px" viewBox="0 -6.68 110 110" xmlns="http://www.w3.org/2000/svg">
  <path id="briefcase" d="M1193.707,358.954c1.2,1.5,1.77,3.648,2.408,5.715.06,2.953-.282,6.3.6,8.424,1.317.42,3.4-.207,5.114-.3h11.734c2.641-.47,6.468-.505,8.727.3.818.886,2.066,1.341,2.4,2.709.932.676.867,2.344,1.505,3.308.371,2.936,1.251,5.368,1.8,8.123q.35,10.637,1.507,20.458c-.154,1.756,1.362,1.847.9,3.91a4.692,4.692,0,0,1-2.408,1.807c-.04.656-.756.643-1.5.6-.292.307-.593.61-.9.9-.777,4.242.506,8.88.3,13.537.106,4.6-.272,9.7.3,13.839-.287,2.918-.786,5.631-1.2,8.422-1.676,1.434-4.628,1.589-7.221,2.108-21.9.239-42.723-.6-64.079-.9a87.837,87.837,0,0,0-11.435,2.105,20.826,20.826,0,0,0-4.511.3c-3.534-.779-9.019.4-12.033-.9-1.364-1.619-.637-4.323-.3-6.617.325-8.383-1.093-17.078.3-24.672-.1-1.1-1.03-1.376-1.809-1.8-.877-.22-1.29-.912-1.8-1.5-.525-4.771.266-9.056-.906-13.238v-6.919c-1.157-5.332-.611-11.909-.3-18.051a15.257,15.257,0,0,1,4.814-4.813c1.965-.742,4.489-.925,6.616-1.5,5.36-.41,10.651.734,15.347,0,.366-1.375-2.035.028-2.109-.906-.944.045-1.032-.768-1.2-1.5.132-2.381,3.171-2.936,5.113-1.806a24.845,24.845,0,0,1,.3-5.716c1.435-2.579,4-4.022,7.521-4.512.528-.477,1.6-.4,2.408-.6.814-.185,2.387.383,2.707-.3,1.356-.55,3.716-.1,5.113-.6,4.485.169,8.419-.207,12.637-.3C1184.4,357.486,1190.6,357.411,1193.707,358.954Zm-29.781,5.715c-2.252,1.261-6.533.487-8.725,1.807-.616.986-.162,3.046-.3,4.51,1.64.066,3.617-.207,4.815.3.579.519-.258,2.463.9,2.4.226.679,1.687.117,2.406.3,1.208.208,1.719-.288,2.71-.3,6-.212,12.02-.413,18.349-.3.5-1.1.191-3.018,1.505-3.307,1.191-.878,2.543-.408,4.212-.3.709-1.8.111-4.666-.6-6.02C1180.538,362.648,1173.172,365.382,1163.926,364.669Zm-36.4,28.279c-.436.187.031.366,0,0,1.215-.79,1.842-2.169,3.611-2.406,1.12.846.35,2.794-.6,3.31-.187,1.521-1.54,1.868-1.505,3.61.45.9.536-1.033,1.2-.9.522-.379.789-1.016,1.805-.9.93,1.555-.214,3.306-.6,4.513.536.358,2.209-.438,2.408.9-.248,1.359-.871,2.34-1.209,3.61.672.936,2.088,1.127,1.809,3.01,2-.31,2.223-2.392,4.814-2.106.105.394.53.473.6.9a11.319,11.319,0,0,1-1.2,3.009c1.206-.036,1.757-1.86,3.008-.9-.672,1.287-.641,2.082.6,2.706-.593.208-.8.8-.9,1.5,2.976-.531,3.7-3.316,6.619-3.91.881.324.976,1.433.905,2.707,1-.1,1.331-.871,2.706-.6.507,1,.771,2.235,1.808,2.706a12.48,12.48,0,0,0,3.606-.6c.777.025.318,1.285,1.508.9h2.1c.642-1.359.141-3.87.3-5.717a9.018,9.018,0,0,1,3.309-1.8c2.628-.222,4.325.49,6.922.3,3.186-.522,5.965-1.453,9.325-1.8,2.491.217,4.836.579,6.319,1.8a20.442,20.442,0,0,1,1.8,6.621c1.178-.227,1.035-1.772,2.406-1.807.486.083.518-.283.9-.3h6.018c8.044-1.481,17.166-1.885,25.268-3.309.1-7.419-1.926-12.712-1.5-20.457-.9-2.807-1.1-6.317-2.405-8.726-4.2.274-7.372-.228-11.131.3-8.756-.035-17.344.1-25.573.6-7.094.128-14.027.414-20.76.9H1156.7c-9.659,1.188-21.894-1.485-30.387,1.2v2.707c1.118.115.79-1.216,2.109-.9.512-.109.567.233.6.6,1.118.115.786-1.219,2.105-.9.947,2.081-.748,3.5-1.505,4.815C1128.893,389.708,1128.133,391.255,1127.522,392.948Zm44.527,18.954a16.81,16.81,0,0,1-5.415.6c-.332,1.877-1.793,2.619-1.805,4.815.306,1.2,1.37,1.636,2.406,2.105.719.887,1.315,1.892,2.706,2.108a67.4,67.4,0,0,0,13.54-2.708,8.713,8.713,0,0,0,.6-3.911c-.542-1.363-1.621-2.188-1.806-3.91C1178.376,410.939,1175.868,412.734,1172.049,411.9Zm-40.916,2.107c.622.906,2.1.438,1.807-1.205a1.4,1.4,0,0,1-.9-.3C1132.177,413.447,1131.227,413.3,1131.133,414.009Zm17.146-.3c1.069.223,2.025-.974.9-1.205C1149.271,413.294,1148.015,412.743,1148.279,413.708Zm-20.454.3c-.34.03-.471-.437-.6,0A.305.305,0,0,0,1127.825,414.009Zm89.652,3.006c-.386.018-.418.389-.9.3-7.952.172-14.655,1.594-21.66,2.707a24.631,24.631,0,0,0-5.717.3c-1.233,1.176-1.716,3.1-3.31,3.914-1.9,1.512-4.676,2.139-7.821,2.4-4.235-.521-7.97.321-12.035-.3a13.032,13.032,0,0,1-2.407-2.407c-.982-.621-.82-2.386-1.5-3.311a95.871,95.871,0,0,0-11.131-.3c-.951.146-1.065-.542-2.106-.3-5.825.2-12.43-.4-17.752.3a81.052,81.052,0,0,1,1.2,16.547,12.631,12.631,0,0,1,3.611.3c2.7,1.615,5.447,3.183,6.621,6.318.627,1.6.45,2.542.3,4.513,1.075.451,3-.519,4.816-.3,1.213-.789,3.565-.448,5.112-.9a32.732,32.732,0,0,0,6.316-.3h25.574c.95.146,1.063-.544,2.107-.305h6.317c1.9-.411,3.99-.621,6.016-.9,1.921-.1,3.172.629,4.816,0a15.6,15.6,0,0,0,.6-4.512c1.3-1.008,1.724-2.89,2.71-4.212,1.136-.463,1.87-1.417,2.706-1.806.511-.235,1.009-.1,1.5-.3.221-.089.587-.493.9-.6,1.459-.5,2.488-.47,3.91-.9,1.457.138,3.892.591,4.814.3-.215-2.69-.424-5.394-.6-8.125-.357-2.647.059-6.074-.9-8.123Zm-5.718,21.963c-1.235,1.774-3.054,2.961-3.007,6.018,1.918.551,4.317-.06,6.618,0,1.786.045,3.577.811,5.114,0,.763-1.646.6-4.212.6-6.619C1217.964,437.558,1214.52,438.488,1211.759,438.978Zm-79.424,6.619a13.737,13.737,0,0,0-1.2,1.5c-.581.32-1.594.207-1.205,1.5.352,1.157,2.637.371,3.915.6,1.717.215,2.684-.32,4.21-.3V445a7.408,7.408,0,0,0-5.718-3.309Z" transform="translate(-1120.5 -357.68)" fill-rule="evenodd"/>
</svg>